<?xml version="1.0" encoding="utf-8"?>
<!-- Generator: Adobe Illustrator 23.0.1, SVG Export Plug-In . SVG Version: 6.00 Build 0)  -->
<svg version="1.1" id="Layer_1" xmlns="http://www.w3.org/2000/svg" xmlns:xlink="http://www.w3.org/1999/xlink" x="0px" y="0px"
	 viewBox="0 0 219.2 53" style="enable-background:new 0 0 219.2 53;" xml:space="preserve">
<style type="text/css">
	.st0{fill:#0A6FCB;}
</style>
<g id="Group_109" transform="translate(0 0)">
	<g id="Group_12" transform="translate(77.9)">
		<g id="Group_11">
			<g id="Group_1" transform="translate(13.461 7.187)">
				<path id="Path_1" class="st0" d="M5.5,14.6c0-0.2,0.4-0.4,1-0.7c0.6-0.3,1.3-0.5,1.9-0.6c1.4-0.3,2.1-0.1,2,0.4
					c-0.7,3.5-1.9,8-2.9,11.8C7,27.4,6.5,29.2,6,31c-0.7,2.5-1.1,4.1-1,4.7c0.1,0.6-0.7,1.1-2.3,1.5S0.2,37.6,0,37.1
					c-0.1-0.7,0.2-2.4,1-5.2c0.6-2,1.1-3.8,1.5-5.5C3.6,22.5,4.8,18.1,5.5,14.6z M5.6,9.2C5.3,9,5.4,8.7,6,8.3
					c0.4-0.2,0.7-0.4,1.1-0.5c0.6-0.2,1.3-0.4,2-0.4c0.4-0.1,0.9,0,1.3,0.1c0.6,0.4,1.2,0.9,1.7,1.4c0.4,0.4-0.1,0.9-1.5,1.4
					c-0.6,0.2-1.3,0.4-2,0.4c-0.7,0.1-1.1,0-1.3-0.1C6.8,10.1,6.2,9.6,5.6,9.2L5.6,9.2z"/>
			</g>
			<g id="Group_2" transform="translate(23.371 13.09)">
				<path id="Path_2" class="st0" d="M16.1,11.5c0.1,2.3-0.3,4.6-1.1,6.8c-0.1,0.3-0.7,0.7-1.6,1c-0.6,0.2-1.3,0.4-2,0.4
					c-0.4,0-1.3,0-2.9,0c-1,0-1.9,0-2.9,0.1c-0.3,1.4-0.4,2.8-0.5,4.2c-0.1,1.3-0.1,2.5,0.2,3.8c0.1,0.6,0.4,1.1,0.7,1.5
					c0.3-0.3,0.6-0.6,0.9-0.9c0.9-1.1,1.5-2.4,1.8-3.8c0-0.2,0.4-0.5,1-0.8c0.6-0.3,1.2-0.5,1.9-0.6c1.4-0.2,2.1-0.1,2,0.5
					c-0.4,2.1-1.6,4-3.3,5.3c-1,0.8-2.1,1.5-3.3,1.9c-1.4,0.6-3,0.8-4.5,0.6C0.8,31.1,0,29.6,0,27c0-1.8,0.1-3.7,0.4-5.5
					c0.3-2.8,1.1-5.6,2.4-8.1c0.6-1.3,1.3-2.5,2.3-3.5c1.4-1.3,3.1-2.1,5-2.4c2.3-0.4,3.8-0.2,4.6,0.7C15.6,9.1,16.1,10.2,16.1,11.5
					z M5.1,30C5,30,5,30,5.1,30L5.1,30z M5.9,18.1c1.5-0.2,3-0.3,4.5-0.3c0.5-1.7,0.7-3.4,0.6-5.2c0-1.1-0.4-2.1-1.2-2.9
					C9.8,9.7,9.7,9.6,9.7,9.6C9.6,9.7,9.5,9.7,9.6,9.6C9.4,9.8,9.3,10,9.1,10.2c-0.4,0.5-0.7,1.1-1,1.7c-0.6,1.3-1.2,2.5-1.6,3.7
					C6.3,16.4,6.1,17.2,5.9,18.1L5.9,18.1z"/>
			</g>
			<g id="Group_3" transform="translate(39.1 11.355)">
				<path id="Path_3" class="st0" d="M18.9,9.2c0.7,1.9,0.9,4,0.7,6c-0.1,1.8-0.4,4-0.9,6.6c-1.3,7.3-1.2,7.8-1.9,10.3
					c-0.1,0.2-0.4,0.4-1,0.7c-0.6,0.3-1.2,0.5-1.9,0.6c-1.5,0.3-2.2,0.1-2-0.4c0.7-2.6,0.6-2.9,1.9-10.1c0.9-5.1,1.1-8.7,0.6-10.9
					c-0.4,0.3-0.7,0.7-1,1c-1.3,1.7-2.5,3.5-3.4,5.4c-1.1,2.2-3,8.2-5,13.6c-0.2,0.5-1.1,0.9-2.7,1.2C0.8,33.9,0,33.8,0,33.4
					c0.5-4.5,1.3-8.9,2.4-13.3c1.3-5.3,2.1-9,2.4-11c0.1-0.6,0.9-1,2.3-1.4c0.5-0.1,1-0.2,1.5-0.2c0.9-0.1,1.3,0,1.3,0.3
					c-0.3,1.8-0.7,3.8-1.2,6.2c0.4-0.5,0.8-0.9,1.2-1.3c1.9-1.8,4.4-3,7-3.5C18,8.8,18.7,8.8,18.9,9.2z"/>
			</g>
			<g id="Group_4" transform="translate(59.738 1.887)">
				<path id="Path_4" class="st0" d="M19.2,7.5c1.5-0.3,2.2-0.1,2,0.5c-1.2,3.8-3.5,14.9-7,33.4c-0.1,0.2-0.4,0.5-1,0.8
					c-0.6,0.3-1.2,0.5-1.9,0.6c-0.4,0.1-0.7,0.1-1,0.1c-2.6,1.1-4.9,1.2-6.7,0.3c-1.6-0.8-2.8-2.4-3.2-4.2
					c-0.7-2.8-0.5-6.2,0.7-10.2c1.3-4.4,3.3-7.3,5.9-8.8c1.4-0.8,3-1.4,4.7-1.5c0.7-0.1,1.4,0,2.1,0.2c0.8-3.6,1.6-6.8,2.5-9.8
					c0.1-0.2,0.4-0.5,1-0.8C17.9,7.8,18.5,7.6,19.2,7.5z M5.3,37.4c0.3,1.5,1.2,2.8,2.4,3.6c0.2,0.1,0.4,0.3,0.6,0.4l0.1-0.1
					c0.3-0.4,0.7-0.7,1.1-0.8c0.2-1.3,0.7-3.8,1.3-7.5c0.6-3.2,1-5.7,1.4-7.5c-0.6,0-0.8-0.1-0.9-0.4c-0.2-2-0.7-3.4-1.5-4.2
					c-0.1-0.1-0.1-0.1-0.1-0.1c-0.2,0.1-0.3,0.3-0.4,0.4c-1.8,2.2-3.1,4.8-3.6,7.7c-0.8,3.5-1.2,5.2-1.2,5.2S4.7,35.2,5.3,37.4
					L5.3,37.4z"/>
			</g>
			<g id="Group_5" transform="translate(74.583 1.97)">
				<path id="Path_5" class="st0" d="M20.3,7.5c0.7,0,1,0.1,1,0.3c0,4-0.2,9.9-0.7,17.9c-0.5,7.9-0.7,11.7-0.7,15.6
					c0,0.7-0.8,1.2-2.5,1.5C16.8,43,16.2,43,15.6,43c-0.5,0-0.8-0.1-0.8-0.3c0-3.4,0.1-5.3,0.4-10.1c-1.2-0.1-2.4-0.1-3.7,0.1
					c-0.6,0.1-1.1,0.1-1.7,0c-0.6,1.9-2,6.6-2.6,8.8c-0.1,0.2-0.4,0.5-1,0.7c-0.6,0.3-1.2,0.5-1.9,0.6c-1.5,0.3-2.2,0.1-2-0.5
					c0.7-2.6,2.2-7.7,3-9.9H4.9c-0.1,0-0.3,0-0.7,0.1c-1,0.6-2.2,0.9-3.4,0.9c-0.5,0-0.7-0.1-0.8-0.4s0.1-0.5,0.5-0.7
					c1.7-1,3.5-1.6,5.4-1.8c0.9-2.5,1.8-4.8,2.7-7c0.4-1,1-2.2,1.7-3.9c0.8-1.8,1.4-3.1,1.7-3.9c0.9-2.4,2.1-4.7,3.4-7
					c0.8-0.8,1.8-1.3,2.9-1.4C19.1,7.3,19.7,7.3,20.3,7.5z M14.1,30.7c0.4-0.1,0.9-0.1,1.3-0.1c0.4-7.5,0.7-12,0.7-13.5
					c-1.2,2.8-2.1,4.7-2.5,5.6c-1,2.4-2,5.1-3,7.8C12.7,30.6,13.9,30.7,14.1,30.7z"/>
			</g>
			<g id="Group_6" transform="translate(97.167 1.896)">
				<path id="Path_6" class="st0" d="M21.9,13c1.2,3.7,0.9,7.7-0.8,11.2c-1.9,4.2-4.8,6.8-8.8,7.8c-1.7,0.5-3.4,0.6-5.1,0.4
					C7,33,6.9,33.6,6.7,34.2C6,36.6,5.4,39,5,41.4c-0.1,0.7-0.9,1.2-2.6,1.5c-0.6,0.1-1.1,0.2-1.7,0.2C0.2,43.1,0,43,0,42.8
					c0.4-2.5,0.9-4.9,1.7-7.3c0.7-2.5,1.2-5.1,1.6-7.6c1.3-7.8,2.3-12.9,3-15.3c0.3-0.4,0.6-0.6,1-0.8c0.6-0.3,1.3-0.5,1.9-0.6
					c1.5-0.3,2.2-0.1,2,0.5c-1.2,4.9-2.2,9.9-3,15c0,0.1,0,0.2-0.1,0.3c0,0.1-0.1,0.2-0.1,0.3c0.2,0.1,0.3,0.2,0.4,0.3
					c0,1.5,1.1,2.7,2.6,2.9c0.2,0,0.4,0.1,0.6,0.1c0,0,0.1,0,0.2,0c0.1,0,0.1,0,0.1-0.1c0.1,0,0.1,0,0,0c0.1-0.1,0.3-0.2,0.4-0.2
					c2.7-2,4.4-5.1,5-9.2c0.3-1.8,0.2-3.7-0.3-5.5c-0.4-1.8-1.4-3.4-2.9-4.6c-1.3-0.9-2.8-1.4-4.4-1.4H9.5c-0.3,0-0.5,0-0.7,0.1
					c-0.2,0-0.3,0.1-0.4,0.1C8.2,9.5,8,9.6,7.8,9.6L7.4,9.7c0,0-0.1,0-0.2,0.1C7.1,9.8,7,9.8,7,9.8c-0.4,0.1-0.9,0.2-1.3,0.4
					c-1.7,0.5-2.6,0.5-2.7-0.1c-0.1-0.5,0.7-1,2.3-1.5c2.5-0.9,5.2-1.3,7.8-1.3c1.9,0,3.7,0.5,5.3,1.4C20.1,9.7,21.3,11.2,21.9,13z"
					/>
			</g>
			<g id="Group_7" transform="translate(117.527 1.896)">
				<path id="Path_7" class="st0" d="M21.9,13c1.2,3.7,0.9,7.7-0.8,11.2c-1.9,4.2-4.8,6.8-8.8,7.8c-1.7,0.5-3.4,0.6-5.1,0.4
					C7,33,6.9,33.6,6.7,34.2C6,36.6,5.4,39,5,41.4c-0.1,0.7-0.9,1.2-2.6,1.5c-0.6,0.1-1.1,0.2-1.7,0.2C0.2,43.1,0,43,0,42.8
					c0.4-2.5,0.9-4.9,1.7-7.3c0.7-2.5,1.2-5.1,1.6-7.6c1.3-7.8,2.3-12.9,3-15.3c0.3-0.4,0.6-0.6,1-0.8c0.6-0.3,1.3-0.5,1.9-0.6
					c1.5-0.3,2.2-0.1,2,0.5c-1.3,4.9-2.2,9.9-3,15c0,0.1,0,0.2-0.1,0.3c0,0.1-0.1,0.2-0.1,0.3c0.2,0.1,0.3,0.2,0.4,0.3
					c0,1.5,1.1,2.7,2.6,2.9c0.2,0,0.4,0.1,0.6,0.1c0,0,0.1,0,0.2,0c0.1,0,0.1,0,0.1-0.1c0.1,0,0.1,0,0,0c0.1-0.1,0.3-0.2,0.4-0.2
					c2.7-2,4.4-5.1,5-9.2c0.3-1.8,0.2-3.7-0.3-5.5c-0.4-1.8-1.4-3.4-2.9-4.6C13,9.8,11.4,9.3,9.8,9.4H9.5c-0.3,0-0.5,0-0.7,0.1
					c-0.2,0-0.3,0.1-0.4,0.1C8.2,9.5,8,9.6,7.9,9.6L7.4,9.7c0,0-0.1,0-0.2,0.1C7.1,9.8,7,9.8,7,9.8c-0.4,0.1-0.9,0.2-1.3,0.4
					C4,10.7,3.1,10.7,3,10.1c-0.1-0.5,0.7-1,2.3-1.5c2.5-0.9,5.2-1.3,7.8-1.3c1.9,0,3.7,0.5,5.3,1.4C20.1,9.7,21.3,11.2,21.9,13z"/>
			</g>
			<g id="Group_10">
				<g id="Group_8" transform="translate(3.867 3.004)">
					<path id="Path_8" class="st0" d="M13.2,8.8c-3.8,12.5-5.8,21.4-6.9,31c-0.1,0.8-1.2,1.4-3.2,1.8c-0.7,0.1-1.4,0.2-2.1,0.2
						c-0.7,0-1-0.1-1-0.3C1.1,31.3,3.4,21.9,7.4,8.7C8.2,7.7,11.9,6.2,13.2,8.8z"/>
				</g>
				<g id="Group_9">
					<path id="Path_9" class="st0" d="M37.7,7.6c0.9,0.1,1.1,0.5,0.5,1.1c-0.4,0.5-1,0.9-1.6,1.2c-2.1,1.1-4.4,1.7-6.8,1.6
						c-2-0.2-4.8,0-6.9,0c-4.4-0.1-8.8,0.2-13.2,1c-1,0.2-1.9,0.3-2.6,0.5s-1.2,0.3-1.6,0.3c-0.1,0-0.1,0.1-0.2,0.1
						c0,0-0.1,0.1-0.1,0c-3.2,0.9-4.9,0.9-5.2,0.2c-0.4-1,1.1-1.9,4.3-2.8c6.3-1.7,12.8-2.7,19.3-3.2C28.3,7.3,33.1,7.2,37.7,7.6z"
						/>
				</g>
			</g>
		</g>
	</g>
	<g id="Group_24" transform="translate(0 0.308)">
		<g id="Group_13" transform="translate(1.879 3.183)">
			<path id="Path_10" class="st0" d="M24.7,0.3c-0.8,1.3-1.4,2.7-1.8,4.2C22.3,6.3,21.6,8.1,21,10c-1,3-1.8,6.4-3.6,9
				c-1.4,2.3-3.5,4.1-6,5.2c-1.9,0.7-4.7,1.1-6.4-0.3c-1.2-1.2-3-1.1-4.2,0c-1.2,1.2-1.1,3,0,4.2c0.2,0.2,0.4,0.3,0.6,0.4
				C7.5,32.9,16,29.1,19,23c1.5-3.3,2.7-6.7,3.5-10.3c0.5-2,1-4,1.5-6c0.4-2,1.4-4.3,1.2-6.3C25.2,0.3,24.9,0.1,24.7,0.3L24.7,0.3z"
				/>
		</g>
		<g id="Group_14" transform="translate(41.31 3.847)">
			<path id="Path_11" class="st0" d="M0,0.2c2.9,6.9,3.6,15.2,8.5,21.1c4.1,4.9,11.7,5.8,17.1,2.5c2.9-1.8,0.2-6.5-2.7-4.6
				c-2,1.3-4.3,1.9-6.7,1.7c-2.2-0.2-4.9-0.8-6.6-2.4c-2.2-2.1-3.3-5.4-4.7-8.2C3.4,7.1,1.5,3.7,0,0.2C0.1,0.2,0,0.2,0,0.2L0,0.2z"
				/>
		</g>
		<g id="Group_15" transform="translate(19.65 3.654)">
			<path id="Path_12" class="st0" d="M6.9,0.3C5.8,1.8,5,3.4,4.5,5.2l-2.2,6c-1.2,3.4-3.2,7.2-1.9,10.8c1.1,3.3,4.1,5.7,7.6,6
				c3.4,0.3,8.1-1.7,8.4-5.5c0.2-2.3-2.5-3.1-4.2-2.4c-1,0.4-1.6,1.5-2.5,2c-0.6,0.3-1.4,0.5-2.1,0.4c-2.1-0.3-3.3-2.5-3.2-4.4
				c0.4-3,1-6.1,1.8-9c0.5-2.7,1.7-6,1.1-8.8c0-0.1-0.2-0.2-0.3-0.2C7,0.2,7,0.2,6.9,0.3L6.9,0.3z"/>
		</g>
		<g id="Group_16" transform="translate(32.352 3.251)">
			<path id="Path_13" class="st0" d="M2.8,0.3C1.8,4.4,1,8.5,0.4,12.6C0,16.4-0.6,20.5,1.2,24c1.6,3.1,5.4,4.4,8.7,4.4
				c3.6,0,7.1-1.4,9.7-3.9c1.2-1.2,1.2-3.2,0-4.4c-0.1-0.1-0.2-0.2-0.3-0.2c-1.6-1.2-3.5-0.6-4.6,0.9c-1.3,1.6-3.3,2.6-5.4,2.8
				c-2.6,0.2-4.8-0.8-5.8-3.4C1.2,13.7,2.4,6.9,3.1,0.4C3.1,0.2,2.8,0.1,2.8,0.3L2.8,0.3z"/>
		</g>
		<g id="Group_20" transform="translate(12.551 31.504)">
			<g id="Group_17" transform="translate(0.746 13.899)">
				<path id="Path_14" class="st0" d="M1,6.5c1.6,0.2,3.1,0.2,4.7,0.1c1.7,0,3.3-0.1,5-0.1c3.1,0,6.3,0,9.4,0c3.1,0,6.1-0.1,9.2-0.2
					c1.7-0.1,3.3-0.1,5-0.2C35.2,6,36,6,36.8,5.9c1,0.1,2,0,3-0.2c1.2-0.4,2-1.5,2.1-2.7c0-1.3-0.8-2.4-2.1-2.7
					c-1.1-0.2-2.2-0.1-3.2,0.4l1.4-0.4c-6.2,0.8-12.5,1-18.8,1.5c-3,0.3-6,0.5-9,0.8C8.6,2.9,7,3.1,5.4,3.2c-1.6,0-3.2,0.3-4.8,0.9
					C0,4.5-0.2,5.3,0.2,6C0.4,6.2,0.7,6.4,1,6.5L1,6.5z"/>
			</g>
			<g id="Group_18" transform="translate(0 3.146)">
				<path id="Path_15" class="st0" d="M2.4,0.3c-1.5,1.8-1.3,5-1.5,7.2c-0.1,1.3-0.2,2.7-0.4,4C0.2,13,0.1,14.5,0,16
					c0,0.8,0.7,1.4,1.5,1.4c0.6,0,1.1-0.4,1.3-1c0.3-1.3,0.5-2.7,0.4-4.1c0.1-1.4,0.1-2.8,0.1-4.2c0-1.3,0-2.7,0.1-4
					c0.2-1.2,0.1-2.5-0.4-3.7C2.9,0.2,2.7,0.1,2.4,0.3C2.5,0.3,2.5,0.3,2.4,0.3L2.4,0.3z"/>
			</g>
			<g id="Group_19" transform="translate(40.191)">
				<path id="Path_16" class="st0" d="M2.5,0.3c-0.7,1-1.1,2.2-1.1,3.5C1.2,5.4,1,6.9,0.9,8.5c-0.1,1.5-0.2,3-0.4,4.5
					c-0.3,1.6-0.5,3.3-0.5,5c0,0.8,0.7,1.4,1.5,1.4c0.6,0,1.1-0.4,1.3-1c0.3-1.5,0.5-3,0.4-4.6c0.1-1.6,0.1-3.2,0.1-4.7
					c0-1.5,0-3,0.1-4.5c0.2-1.4,0.1-2.8-0.3-4.1C3,0.2,2.7,0.1,2.5,0.3C2.5,0.3,2.5,0.3,2.5,0.3L2.5,0.3z"/>
			</g>
		</g>
		<g id="Group_21" transform="translate(0 3.77)">
			<path id="Path_17" class="st0" d="M17.2,0.2c-0.9,0.5-1.1,1.6-1.5,2.5c-0.6,1.2-1.1,2.4-1.7,3.5c-1.1,2.2-2.5,4.2-3.7,6.3
				c-1.8,3.1-4.2,6.5-8,7.3c-4,0.8-2.1,7.6,1.7,6.1c2.3-0.8,4.2-2.2,5.7-4.1c0.7-1,1.2-2.1,1.6-3.2c0.5-1.1,1.1-2.2,1.5-3.3
				c1-2.5,1.7-5.1,2.6-7.6c0.5-1.3,0.9-2.6,1.3-4c0.3-1,1.1-2.4,0.7-3.4C17.4,0.2,17.3,0.2,17.2,0.2C17.3,0.2,17.2,0.2,17.2,0.2
				L17.2,0.2z"/>
		</g>
		<g id="Group_22" transform="translate(47.455 3.686)">
			<path id="Path_18" class="st0" d="M0,0.3c0,0.5,0.1,1.1,0.3,1.6c0.3,0.7,0.7,1.5,1,2.2C2,5.4,2.7,6.8,3.6,8
				c1.7,2.6,3.7,5,5.9,7.2c2.1,2.3,4.5,4.2,7.2,5.7c2.4,1.2,7.9,3.1,9.4-0.2c0.6-1.1,0.3-2.6-0.9-3.3c-1.4-0.9-2.6-0.1-4.1-0.2
				c-1.2-0.1-2.4-0.4-3.4-1c-2.3-1.3-4.5-3-6.5-4.8c-2-1.8-3.8-3.7-5.7-5.6C3.8,4,2.2,1.7,0.2,0.2C0.1,0.2,0,0.2,0,0.3
				C0,0.3,0,0.3,0,0.3L0,0.3z"/>
		</g>
		<g id="Group_23" transform="translate(16.929)">
			<path id="Path_19" class="st0" d="M0.1,4.7C2.7,5.1,5.4,5.2,8,5c2.7,0,5.4,0,8.1-0.3s5.4-0.5,8-0.8c1.3-0.1,2.6-0.3,3.9-0.4
				c1.4-0.1,2.7-0.3,4-0.6c0.7-0.2,1.1-1,0.9-1.8c-0.2-0.5-0.7-0.9-1.3-1c-1.3,0-2.5,0.1-3.8,0.4c-1.4,0.2-2.9,0.4-4.3,0.6
				c-2.6,0.3-5.2,0.6-7.8,0.9c-2.5,0.3-5,0.6-7.5,0.9C5.6,3.4,2.7,3.5,0.1,4.3C0,4.3,0,4.4,0,4.5C0,4.6,0.1,4.7,0.1,4.7L0.1,4.7z"/>
		</g>
	</g>
</g>
</svg>
